<svg xmlns="http://www.w3.org/2000/svg" viewBox="0 0 800 450" width="100%" height="100%">
  <defs>
    <radialGradient id="ai-bg" cx="50%" cy="50%" r="70%">
      <stop offset="0%" stop-color="#1f1338"/>
      <stop offset="100%" stop-color="#0a0a0f"/>
    </radialGradient>
    <filter id="glowAi2" x="-20%" y="-20%" width="140%" height="140%">
      <feGaussianBlur stdDeviation="14" result="blur"/>
      <feComposite in="SourceGraphic" in2="blur" operator="over"/>
    </filter>
  </defs>

  <rect width="800" height="450" fill="url(#ai-bg)"/>
  <ellipse cx="400" cy="295" rx="230" ry="65" fill="#06030c" opacity="0.8"/>

  <!-- 3D Laptop on Left -->
  <g transform="translate(320, 235)">
    <polygon points="-75,0 55,-45 130,0 0,45" fill="#1e293b" stroke="#475569" stroke-width="2"/>
    <polygon points="-75,0 55,-45 55,-120 -75,-75" fill="#090d16" stroke="#6366f1" stroke-width="2.5"/>
    <line x1="-60" y1="-60" x2="0" y2="-82" stroke="#38bdf8" stroke-width="3.5" stroke-linecap="round"/>
    <line x1="-60" y1="-42" x2="20" y2="-68" stroke="#a855f7" stroke-width="3.5" stroke-linecap="round"/>
    <line x1="-60" y1="-24" x2="35" y2="-54" stroke="#34d399" stroke-width="3.5" stroke-linecap="round"/>
  </g>

  <!-- Cute Glowing 3D AI Robot Assistant -->
  <g transform="translate(505, 175)" filter="url(#glowAi2)">
    <ellipse cx="0" cy="85" rx="32" ry="10" fill="rgba(0,0,0,0.5)"/>
    <circle cx="0" cy="0" r="48" fill="#8b5cf6" opacity="0.25"/>
    <circle cx="0" cy="0" r="38" fill="#6366f1" stroke="#c084fc" stroke-width="3"/>
    <rect x="-22" y="-14" width="44" height="28" rx="10" fill="#0b0a1a"/>
    <!-- Glowing Cute Eyes -->
    <path d="M -13 -2 Q -9 -7 -5 -2" fill="none" stroke="#38bdf8" stroke-width="3" stroke-linecap="round"/>
    <path d="M 5 -2 Q 9 -7 13 -2" fill="none" stroke="#38bdf8" stroke-width="3" stroke-linecap="round"/>
    <line x1="0" y1="-38" x2="0" y2="-52" stroke="#c084fc" stroke-width="3"/>
    <circle cx="0" cy="-56" r="5" fill="#ec4899"/>
    <!-- Sparkles -->
    <polygon points="-50,-10 -58,-18 -66,-10 -58,-2" fill="#fef08a"/>
    <polygon points="-75,18 -81,11 -88,18 -81,25" fill="#38bdf8"/>
  </g>

  <text x="400" y="415" text-anchor="middle" font-family="'Outfit', sans-serif" font-size="14" font-weight="600" fill="#c084fc" letter-spacing="2">AI-POWERED CODE AUTOCOMPLETE &amp; PAIRING</text>
</svg>